# xmcd
#
# Track frame offsets: 
#        150
#        12279
#        23662
#        36434
#        48404
#        61586
#        73152
#        83212
#        93082
#        105355
#        115729
#        128436
#        140537
#        152137
#        162929
#        175321
#        187008
#        201470
#        212852
#        223326
#        235232
#        247322
#        261040
#        274016
#        284966
#
# Disc length: 3970 seconds
#
# Revision: 7
# Processed by: cddbd v1.5.2PL0 Copyright (c) Steve Scherf et al.
# Submitted via: ExactAudioCopy v1.0b3
#
DISCID=780f8019
DTITLE=Various Artist - Hillbilly Boogie [Disc 2]
DYEAR=2002
DGENRE=Hillbilly
TTITLE0=Arthur, Charline - I've Got The Boogie Blues
TTITLE1=Briggs, Billy - Pretty Baby Boogie
TTITLE2=Maston Music Makers, The - Slick Chick Boogie
TTITLE3=Songer, Earl and His Rocky Road Ramblers - Mother-in-Law Boogie
TTITLE4=Bond, Johnny and His Red River Valley Boys - Mean Mama Boogie
TTITLE5=James, Jesse - Jesse James Boogie
TTITLE6=Tyler, Johnny and The Riders Of The Rio Grande - Old MacDonald B
TTITLE6=oogie
TTITLE7=Milo Twins, The - Baby Buggie Boogie
TTITLE8=Maddox Bros and Rose - George's Playhouse Boogie
TTITLE9=Kizziah, Tommy and His West Coast Ramblers - Long Tom Boogie
TTITLE10=Raney, Wayne - Jack and Jill Boogie
TTITLE11=Turner, Zeb - Boogie Woogie Lou
TTITLE12=Brady, Brad (Owen Bradley and His Tennesseans) - Zeb's Mountain
TTITLE12=Boogie
TTITLE13=Gunn, Art and His Arizona Playboys - Boogie Woogie Blues
TTITLE14=Ramsey, Rip and His Texas Wanderers - Rip Ramsey Boogie
TTITLE15=McCoy, Walt and His Western Wonders - Richey Boogie
TTITLE16=Rhythm Boys, The - Porky's Boogie Woogie On Strings
TTITLE17=Tyler, T. Texas - T. Texas Boogie
TTITLE18=Strength, "Texas" Bill - Paper Boy Boogie
TTITLE19=McCoy, Walt and His Western Wonders - Cowboy Boogie
TTITLE20=Raney, Wayne - Lost John Boogie
TTITLE21=Travis, Merle - Merle's Boogie Woogie
TTITLE22=Hess, Bennie and His Nation Playboys - Bennie Hess Boogie
TTITLE23=Whitney, Don - G.I. Boogie
TTITLE24=Dyson, Dick and His Blue Bonnet Boys - Hal Billy Boogie
EXTD=See <http://www.propermusic.com/products.asp?recnumber=71> for de
EXTD=tailed track-list and discography.\nCompiled and annotated by Ada
EXTD=m Komorowski - produced by Joop Visser Productions.\nDigital remas
EXTD=tering by Peter Rynston at Tall Order Mastering.\n4CD: Proper Rec
EXTD=ords PROPERBOX 50 (2002-10/11 - 2005), UPC 805520020503.
EXTT0=
EXTT1=
EXTT2=
EXTT3=
EXTT4=
EXTT5=
EXTT6=
EXTT7=
EXTT8=
EXTT9=
EXTT10=
EXTT11=
EXTT12=
EXTT13=
EXTT14=
EXTT15=
EXTT16=
EXTT17=
EXTT18=
EXTT19=
EXTT20=
EXTT21=
EXTT22=
EXTT23=
EXTT24=
PLAYORDER=
